<svg
    width="100%"
    height="100%"
    viewBox="0 0 64 64"
    xmlns="http://www.w3.org/2000/svg">
    <path d="M0.256,15.933c-0.003,0.076 -0.005,0.152 -0.005,0.228c0,0.307 0.026,0.61 0.076,0.907c0.072,0.424 0.193,0.836 0.359,1.229c0.026,0.063 0.054,0.125 0.083,0.187l0.018,0.039l0.046,0.095c0.035,0.068 0.07,0.136 0.107,0.204c0.642,1.165 1.699,2.118 3.035,2.663c9.088,3.71 20.431,8.341 25.36,10.354c0.618,0.252 1.268,0.405 1.925,0.46l0.079,0.006l0.079,0.006l0.079,0.004c0.026,0.001 0.053,0.002 0.079,0.003l0.079,0.003c0.897,0.021 1.797,-0.14 2.636,-0.482c4.93,-2.013 16.273,-6.644 25.361,-10.354c2.261,-0.923 3.723,-3.014 3.723,-5.324c0,-0.938 -0.241,-1.841 -0.679,-2.643c-0.641,-1.173 -1.701,-2.133 -3.044,-2.681c-9.088,-3.71 -20.431,-8.341 -25.361,-10.353c-1.58,-0.645 -3.375,-0.645 -4.956,-0c-4.929,2.012 -16.272,6.643 -25.36,10.353c-2.187,0.893 -3.626,2.877 -3.719,5.096Z"/>
    <path d="M3.389,36.433l26.197,11.226c1.535,0.658 3.299,0.657 4.833,-0.002l25.824,-11.094c2.911,-1.25 4.19,-4.479 2.855,-7.204c-1.335,-2.726 -4.782,-3.924 -7.692,-2.674l-23.409,10.057c-0,-0 -23.781,-10.191 -23.781,-10.191c-2.912,-1.247 -6.357,-0.046 -7.689,2.681c-1.333,2.727 -0.05,5.954 2.862,7.201Z"/>
    <path d="M3.389,52.122l26.571,11.385c1.534,0.658 3.298,0.657 4.832,-0.002l25.825,-11.094c2.91,-1.25 4.189,-4.478 2.854,-7.204c-1.335,-2.726 -4.782,-3.924 -7.692,-2.673l-23.409,10.056c0,-0 -24.154,-10.35 -24.154,-10.35c-2.912,-1.248 -6.357,-0.047 -7.689,2.68c-1.333,2.727 -0.05,5.954 2.862,7.202Z"/>
</svg>